HIERARCHY
ROOT root
{
	OFFSET	0	13.1	24.9
	CHANNELS 6  Xposition Yposition Zposition Xrotation Yrotation Zrotation
	JOINT spine_1
	{
		OFFSET	0	9.99999	0
		CHANNELS 3  Xrotation Yrotation Zrotation
		JOINT spine_2
		{
			OFFSET	0	112	-10
			CHANNELS 3  Xrotation Yrotation Zrotation
			JOINT spine_3
			{
				OFFSET	0	206.5	19.3
				CHANNELS 3  Xrotation Yrotation Zrotation
				JOINT spine_4
				{
					OFFSET	0	110.4	14.6
					CHANNELS 3  Xrotation Yrotation Zrotation
					JOINT neck_1
					{
						OFFSET	0	71.8	-50.3
						CHANNELS 3  Xrotation Yrotation Zrotation
						JOINT neck_2
						{
							OFFSET	0	86.2	-25.8
							CHANNELS 3  Xrotation Yrotation Zrotation
							JOINT head_ee
							{
								OFFSET	0	179.8	-8.7
								CHANNELS 3  Xrotation Yrotation Zrotation
								End Site
								{
									OFFSET	1	0	0
								}
							}
						}
					}
					JOINT left_clavicle
					{
						OFFSET	-43.2	22.4	-70.8
						CHANNELS 3  Xrotation Yrotation Zrotation
						JOINT left_shoulder
						{
							OFFSET	-93.9	-5.79999	48.7
							CHANNELS 3  Xrotation Yrotation Zrotation
							JOINT left_elbow
							{
								OFFSET	-291.4	-30.8	15.2
								CHANNELS 3  Xrotation Yrotation Zrotation
								JOINT left_lowarm_twist
								{
									OFFSET	-110.7	-3.89999	13.6
									CHANNELS 3  Xrotation Yrotation Zrotation
									JOINT left_hand
									{
										OFFSET	-110.7	-3.89999	13.6
										CHANNELS 3  Xrotation Yrotation Zrotation
										JOINT left_ee
										{
											OFFSET	-80.8	-5.10001	12.1
											CHANNELS 3  Xrotation Yrotation Zrotation
											End Site
											{
												OFFSET	1	0	0
											}
										}
									}
								}
							}
						}
					}
					JOINT right_clavicle
					{
						OFFSET	43.2	22.4	-70.8
						CHANNELS 3  Xrotation Yrotation Zrotation
						JOINT right_shoulder
						{
							OFFSET	93.9	-5.79999	48.7
							CHANNELS 3  Xrotation Yrotation Zrotation
							JOINT right_elbow
							{
								OFFSET	291.4	-30.8	15.2
								CHANNELS 3  Xrotation Yrotation Zrotation
								JOINT right_lowarm_twist
								{
									OFFSET	110.7	-3.89999	13.6
									CHANNELS 3  Xrotation Yrotation Zrotation
									JOINT right_hand
									{
										OFFSET	110.7	-3.89999	13.6
										CHANNELS 3  Xrotation Yrotation Zrotation
										JOINT right_ee
										{
											OFFSET	80.8	-5.10001	12.1
											CHANNELS 3  Xrotation Yrotation Zrotation
											End Site
											{
												OFFSET	1	0	0
											}
										}
									}
								}
							}
						}
					}
				}
			}
		}
	}
	JOINT left_hip
	{
		OFFSET	-82.8	-127.5	0.300001
		CHANNELS 3  Xrotation Yrotation Zrotation
		JOINT left_knee
		{
			OFFSET	-28.2	-396.7	2.2
			CHANNELS 3  Xrotation Yrotation Zrotation
			JOINT left_ankle
			{
				OFFSET	-11.7	-411.3	35.4
				CHANNELS 3  Xrotation Yrotation Zrotation
				JOINT left_toes
				{
					OFFSET	0	-60	-88.6
					CHANNELS 3  Xrotation Yrotation Zrotation
					JOINT left_foot_ee
					{
						OFFSET	-22.5	-16.5	-42.2
						CHANNELS 3  Xrotation Yrotation Zrotation
						End Site
						{
							OFFSET	1	0	0
						}
					}
				}
			}
		}
	}
	JOINT right_hip
	{
		OFFSET	82.8	-127.5	0.300001
		CHANNELS 3  Xrotation Yrotation Zrotation
		JOINT right_knee
		{
			OFFSET	28.2	-396.7	2.2
			CHANNELS 3  Xrotation Yrotation Zrotation
			JOINT right_ankle
			{
				OFFSET	11.7	-411.3	35.4
				CHANNELS 3  Xrotation Yrotation Zrotation
				JOINT right_toes
				{
					OFFSET	0	-60	-88.6
					CHANNELS 3  Xrotation Yrotation Zrotation
					JOINT right_foot_ee
					{
						OFFSET	22.5	-16.5	-42.2
						CHANNELS 3  Xrotation Yrotation Zrotation
						End Site
						{
							OFFSET	1	0	0
						}
					}
				}
			}
		}
	}
}
MOTION
Frames: 16
Frame Time: 0.02
3560.27 749.87 -1435.06 -1.77164 67.0796 8.11853 1.35515 -0.0561027 -3.2422 1.36099 0.15021 -3.2392 1.35292 0.754241 -3.15384 1.33913 0.24696 -3.23327 -20.7585 13.4341 4.88056 -21.5725 23.5096 10.5343 -0.0 0.0 -0.0 5.42968 7.5341 10.6028 -11.5947 -23.7004 62.4511 1.75677 -41.0279 0.657363 -39.6896 -2.91821 4.03828 -3.5038 26.7185 -8.89348 -0.0 0.0 -0.0 0.361476 26.7887 2.29214 -27.2471 6.15836 -76.6834 0.408563 11.4418 -0.0409306 12.5638 -0.270508 1.57891 3.814 -11.366 -30.5253 0.0 0.0 0.0 -3.49507 -20.2691 1.96274 -4.79058 0.167386 0.715943 40.2364 26.5011 -5.24204 -18.4985 0.0 0.0 -0.0 0.0 -0.0 8.20513 2.11205 -2.96281 -1.57511 -0.0616427 -0.233856 6.14566 -4.3781 0.886432 13.5693 -0.0 -0.0 0.0 0.0 0.0 
3557.4 750.906 -1440.24 -3.29733 67.2938 9.24542 1.40233 -0.242818 -3.13209 1.40779 -0.0431237 -3.14118 1.41068 0.542533 -3.09432 1.39732 0.0472854 -3.14112 -22.7115 14.2974 4.88877 -23.8421 25.338 11.5069 -0.0 0.0 -0.0 6.1002 7.12817 11.8272 -12.0452 -19.6388 61.4375 1.87265 -42.8464 0.734812 -40.3097 -2.98416 4.08281 -3.5687 26.5124 -9.38095 -0.0 0.0 -0.0 0.617725 27.4132 1.80068 -27.0739 6.70011 -76.9395 0.383973 10.7697 -0.0361941 12.883 -0.27284 1.61962 4.06225 -12.4675 -32.7432 0.0 0.0 0.0 -2.73316 -19.8169 2.14421 -4.83065 0.168533 0.721985 40.3245 26.6802 -5.25703 -19.2858 0.0 0.0 -0.0 0.0 -0.0 8.01556 2.1537 -3.53428 1.21068 0.0517444 0.178573 1.86481 1.20684 0.275453 12.6097 -0.0 -0.0 0.0 0.0 0.0 
3554.38 746.73 -1441.4 -3.9148 66.1688 9.80882 1.42456 -0.0876892 -3.11167 1.42994 0.110395 -3.11095 1.42428 0.687216 -3.03618 1.41147 0.199327 -3.10652 -22.2274 15.9255 4.32648 -23.7061 28.6918 11.7767 -0.0 0.0 -0.0 6.25216 6.61615 12.1128 -12.7496 -18.6214 61.0047 2.02504 -45.0848 0.840628 -40.7043 -3.02638 4.11078 -3.47612 25.9658 -9.18474 -0.0 0.0 -0.0 0.777733 28.0703 1.52203 -26.689 6.93143 -76.9952 0.335619 9.43962 -0.0277099 13.138 -0.274541 1.65215 4.12203 -13.1633 -33.4047 0.0 0.0 0.0 -2.52181 -19.6555 1.64679 -4.66511 0.163769 0.697027 39.7228 26.6176 -5.19616 -20.097 0.0 0.0 -0.0 0.0 -0.0 7.77748 1.84374 -3.77199 2.50022 0.111004 0.367557 5.12831 6.10029 0.763932 12.6318 -0.0 -0.0 0.0 0.0 0.0 
3545.82 746.258 -1449.12 -5.09462 66.0078 10.739 1.79374 -0.226481 -2.98072 1.79868 -0.0364371 -2.98909 1.80056 0.500683 -2.94712 1.78844 0.0291738 -2.98917 -21.8979 17.008 4.63027 -23.5678 30.6102 12.5597 -0.0 0.0 -0.0 6.72868 6.31211 13.0014 -13.5838 -16.8315 60.4451 1.95839 -44.1265 0.793821 -40.9815 -3.05615 4.13026 -3.58551 25.9142 -9.8355 -0.0 0.0 -0.0 0.967735 28.3921 1.14284 -26.7864 7.08622 -77.0694 0.310649 8.74861 -0.023763 13.3101 -0.275606 1.6741 4.20777 -13.799 -34.2476 0.0 0.0 0.0 -1.94071 -19.3152 1.87123 -5.80364 0.195074 0.868947 40.8914 25.6889 -5.27616 -20.4553 0.0 0.0 -0.0 0.0 -0.0 7.63886 1.97825 -3.93263 3.81409 0.17575 0.558715 4.58573 9.80415 0.697201 12.3676 -0.0 -0.0 0.0 0.0 0.0 
3548.06 746.068 -1455.42 -5.41537 65.9561 10.8993 1.85418 -0.283295 -2.9181 1.85891 -0.0971167 -2.9302 1.86383 0.42712 -2.90055 1.85209 -0.036124 -2.93158 -23.8044 16.4389 5.0157 -25.5396 29.477 13.2007 -0.0 0.0 -0.0 6.22098 7.24512 12.0471 -14.1627 -16.8884 60.6593 2.10634 -46.2115 0.898761 -40.2292 -2.97558 4.07708 -3.31649 24.7772 -8.97217 -0.0 0.0 -0.0 0.983321 28.5577 1.12642 -24.9611 7.15587 -77.1945 0.34824 9.78783 -0.0298175 13.7674 -0.278118 1.73246 4.33049 -14.4456 -35.3841 0.0 0.0 0.0 -2.35364 -24.5017 0.8855 -5.55833 0.188618 0.831853 41.258 24.8193 -5.28107 -20.5793 0.0 0.0 -0.0 0.0 -0.0 7.6232 1.91194 -4.58156 3.52791 0.161273 0.517202 0.981323 8.95222 0.150076 12.3323 -0.0 -0.0 0.0 0.0 0.0 
3539.71 747.705 -1460.58 -6.754 65.9042 11.9227 2.03404 -0.379638 -2.88119 2.03864 -0.19561 -2.89949 2.04834 0.315289 -2.88894 2.03673 -0.144723 -2.90247 -25.0279 15.9049 4.82643 -26.7861 28.6005 13.099 -0.0 0.0 -0.0 5.61565 6.50472 10.9411 -16.1009 -17.4247 61.3924 2.2036 -47.5013 0.969732 -40.6306 -3.01847 4.10558 -3.46796 24.3763 -10.0788 -0.0 0.0 -0.0 0.865144 28.6416 1.39217 -24.7278 7.05475 -76.8344 0.418336 11.708 -0.0428914 14.9945 -0.282555 1.88912 4.50656 -14.8014 -36.8786 0.0 0.0 0.0 -1.89377 -20.1986 1.57367 -6.23322 0.205996 0.933966 42.0366 25.4615 -5.37521 -20.8034 0.0 0.0 -0.0 0.0 -0.0 7.61759 1.94966 -4.35859 3.13403 0.141689 0.459953 0.691592 11.7366 0.107609 13.4518 -0.0 -0.0 0.0 0.0 0.0 
3532.08 745.065 -1466.39 -6.72939 66.3322 11.8218 2.16413 -0.452928 -2.8383 2.16857 -0.271478 -2.86134 2.18183 0.22713 -2.8652 2.17045 -0.228034 -2.86513 -24.8624 15.8535 5.87283 -26.4874 28.0634 13.938 -0.0 0.0 -0.0 5.15861 5.73789 10.0939 -17.4358 -18.8753 62.1429 2.16365 -46.979 0.940401 -39.806 -2.93055 4.04669 -3.24938 23.3094 -9.43024 -0.0 0.0 -0.0 0.90271 29.0144 1.34974 -24.5118 7.12095 -77.2864 0.433549 12.1213 -0.0460322 15.5435 -0.283453 1.95923 4.55423 -15.5975 -37.4651 0.0 0.0 0.0 -2.56345 -21.8025 1.07602 -6.35476 0.208998 0.952377 43.1325 25.1161 -5.46249 -19.7664 0.0 0.0 -0.0 0.0 -0.0 7.68364 1.99297 -4.30975 2.05083 0.0898689 0.301847 -0.906549 12.2694 -0.142141 15.2556 -0.0 -0.0 0.0 0.0 0.0 
3524.39 745.457 -1473.36 -7.07415 65.9975 12.0447 2.22049 -0.435647 -2.75938 2.22469 -0.259247 -2.78148 2.23693 0.222696 -2.78465 2.22618 -0.219706 -2.78488 -23.8565 15.9374 6.01086 -25.3725 28.0906 13.7888 -0.0 0.0 -0.0 5.06162 5.1745 9.9061 -18.1324 -17.8033 62.8847 2.08788 -45.9597 0.885466 -38.891 -2.834 3.97987 -3.17601 22.3132 -9.56788 -0.0 0.0 -0.0 1.02006 28.6558 1.05691 -24.1756 6.95541 -77.0374 0.488188 13.5953 -0.0581928 15.029 -0.282631 1.89353 4.37103 -14.9019 -35.8244 0.0 0.0 0.0 -2.96676 -22.5187 0.833799 -6.6516 0.216165 0.997366 41.7643 23.6013 -5.2885 -20.9331 0.0 0.0 -0.0 0.0 -0.0 8.00832 1.96902 -4.54087 0.534121 0.0223621 0.0789135 -2.2962 11.7223 -0.359971 17.3218 -0.0 -0.0 0.0 0.0 0.0 
3516.52 738.616 -1480.96 -6.33929 65.9167 10.8282 2.2939 -0.17207 -2.63313 2.29776 -0.00422834 -2.63874 2.29741 0.446878 -2.60065 2.28798 0.0306942 -2.63856 -23.3759 16.0286 6.59264 -24.8007 27.9713 14.2017 -0.0 0.0 -0.0 5.24546 4.78072 10.2423 -18.5083 -15.3391 63.3891 2.17681 -47.1523 0.950039 -38.2699 -2.76907 3.93365 -2.99281 22.3869 -8.4485 -0.0 0.0 -0.0 1.49411 28.7117 0.0329349 -22.966 7.42213 -76.8946 0.475165 13.2455 -0.0551702 14.5359 -0.281289 1.83056 4.39561 -16.3527 -36.3834 0.0 0.0 0.0 -3.08684 -22.3148 0.788424 -6.86587 0.221194 1.02986 42.3611 24.4943 -5.37164 -20.281 0.0 0.0 -0.0 0.0 -0.0 8.09084 -0.206292 -5.19251 -0.696824 -0.0280647 -0.103252 0.0138602 10.4987 0.00214396 20.2818 -0.0 -0.0 0.0 0.0 0.0 
3510.32 740.65 -1486.77 -6.9625 66.1853 11.5571 2.28403 -0.211396 -2.61031 2.28782 -0.0449255 -2.61846 2.28938 0.403632 -2.58758 2.28004 -0.00994748 -2.61883 -23.3432 15.8918 6.20988 -24.7693 27.8723 13.7736 -0.0 0.0 -0.0 5.08154 5.42294 9.94697 -18.7016 -17.7508 63.5744 1.92941 -43.6999 0.773723 -37.3284 -2.67163 3.86226 -3.00212 21.5087 -8.99001 -0.0 0.0 -0.0 1.57216 28.9558 -0.11071 -21.9103 7.3952 -76.729 0.555523 15.3865 -0.0750436 15.437 -0.283331 1.94563 4.3373 -15.0479 -35.5963 0.0 0.0 0.0 -3.4384 -24.177 0.802262 -7.08849 0.226289 1.06365 42.0116 24.7491 -5.34836 -19.8431 0.0 0.0 -0.0 0.0 -0.0 8.08747 0.89907 -5.48209 -1.69304 -0.0659989 -0.25143 -1.80564 10.0013 -0.279768 19.4489 -0.0 -0.0 0.0 0.0 0.0 
3497.48 737.998 -1490.81 -6.28312 66.0588 10.1772 2.2818 -0.199882 -2.45569 2.28516 -0.0432636 -2.46343 2.28658 0.37884 -2.43453 2.27831 -0.0102808 -2.46379 -22.0444 15.8891 6.19974 -23.3238 27.7452 13.355 -0.0 0.0 -0.0 5.09867 4.9464 9.97121 -19.9569 -16.211 64.5413 1.88844 -43.0863 0.745578 -37.4107 -2.6801 3.86856 -2.76541 19.1351 -8.86312 -0.0 0.0 -0.0 1.91705 28.6472 -0.892036 -19.7434 8.10656 -75.5743 0.590493 16.305 -0.0845925 15.3841 -0.283262 1.93888 4.15105 -15.9477 -34.3761 0.0 0.0 0.0 -3.57661 -23.1326 0.19428 -7.57459 0.236958 1.13748 42.0783 23.2759 -5.3069 -19.8352 0.0 0.0 -0.0 0.0 -0.0 7.57363 1.45675 -4.57337 -2.1326 -0.0819145 -0.317011 -1.82795 9.87555 -0.283034 22.0706 -0.0 -0.0 0.0 0.0 0.0 
3492.17 741.982 -1493.7 -5.16146 64.3805 8.58361 2.08496 0.135892 -2.28331 2.08782 0.280872 -2.27005 2.07629 0.673343 -2.18605 2.06976 0.319741 -2.2649 -22.5479 16.3074 5.2586 -24.0705 29.0265 12.9225 -0.0 0.0 -0.0 4.90067 4.32337 9.58972 -20.8005 -16.1052 65.3973 1.72972 -40.5881 0.639681 -36.6278 -2.59988 3.8081 -2.6705 18.6722 -8.53312 -0.0 0.0 -0.0 2.01011 28.9499 -1.06188 -17.0526 10.0883 -75.1217 0.626724 17.2476 -0.0950505 14.5176 -0.281229 1.82823 3.96343 -16.6342 -33.1189 0.0 0.0 0.0 -2.58314 -17.1076 1.4364 -8.15859 0.248947 1.22629 41.4084 23.6609 -5.25775 -20.2636 0.0 0.0 -0.0 0.0 -0.0 7.11766 2.07893 -4.50969 -2.36526 -0.0901356 -0.351773 -2.51438 9.65026 -0.389442 24.8862 -0.0 -0.0 0.0 0.0 0.0 
3486.34 736.136 -1500.28 -5.03281 65.339 8.33673 1.9558 -0.0885519 -2.18831 1.95846 0.0508417 -2.18951 1.95635 0.437098 -2.14606 1.94994 0.0927662 -2.18814 -23.6716 15.8993 6.13608 -25.1446 27.948 13.8173 -0.0 0.0 -0.0 4.59989 4.48979 9.03223 -20.2075 -13.704 66.8693 1.65702 -39.3773 0.592965 -35.761 -2.51204 3.73989 -2.50007 18.8862 -7.38658 -0.0 0.0 -0.0 2.51722 27.9278 -2.27056 -15.7457 9.17533 -73.6185 0.65941 18.0898 -0.104971 15.0935 -0.282767 1.90177 3.73103 -16.9468 -31.4664 0.0 0.0 0.0 -2.61927 -19.9598 1.59388 -9.23124 0.268606 1.38972 42.2276 25.4942 -5.39392 -18.0043 0.0 0.0 -0.0 0.0 -0.0 7.19003 4.91165 -4.28773 -5.63622 -0.190685 -0.843629 2.92651 6.00299 0.438676 23.6069 -0.0 -0.0 0.0 0.0 0.0 
3472.2 732.815 -1515.92 -1.07191 65.2934 4.77237 1.79731 -0.0236491 -2.09708 1.79975 0.109812 -2.09434 1.79565 0.484063 -2.04061 1.78987 0.155785 -2.09143 -23.6304 16.5312 7.04828 -25.1625 28.7655 14.9844 -0.0 0.0 -0.0 3.82205 3.99336 7.56453 -21.043 -12.2007 68.2757 1.4709 -36.0763 0.479031 -34.6788 -2.40385 3.65289 -2.26731 17.6198 -6.61897 -0.0 0.0 -0.0 2.85463 27.1967 -3.07984 -16.2962 10.6353 -74.1506 0.711633 19.4187 -0.121763 14.5354 -0.281287 1.8305 3.84156 -18.2938 -32.6082 0.0 0.0 0.0 -3.49202 -18.5044 0.499386 -14.112 0.319302 2.13667 42.5722 25.6323 -5.43035 -16.5007 0.0 0.0 -0.0 0.0 -0.0 5.52539 7.04904 -4.28176 -10.3949 -0.286468 -1.56737 6.45724 3.06555 0.946413 25.879 -0.0 -0.0 0.0 0.0 0.0 
3462.51 724.608 -1521.82 0.0363847 64.8314 3.46169 1.57833 0.292871 -2.00631 1.58047 0.419918 -1.98362 1.56577 0.776913 -1.87287 1.56118 0.47144 -1.97201 -23.5603 17.5732 8.57459 -25.1821 30.1042 16.9234 -0.0 0.0 -0.0 2.70815 3.43295 5.45543 -21.8639 -14.9215 69.6264 1.4965 -36.5479 0.494189 -33.7017 -2.30759 3.5726 -2.54452 16.4464 -8.92675 -0.0 0.0 -0.0 3.23043 29.1266 -3.6897 -13.8026 11.0281 -73.8086 0.734327 19.9896 -0.129414 14.7299 -0.281882 1.85534 3.97286 -18.2212 -33.5693 0.0 0.0 0.0 -2.97997 -17.5657 0.627501 -16.4174 0.321091 2.49035 40.1948 25.3973 -5.19977 -14.6305 0.0 0.0 -0.0 0.0 -0.0 4.85004 8.98843 -5.1803 -10.4065 -0.286628 -1.56915 9.91973 3.30742 1.43773 28.6427 -0.0 -0.0 0.0 0.0 0.0 
3450.21 725.12 -1530.09 1.97364 64.0882 1.50136 1.3133 0.457827 -1.9983 1.31533 0.584032 -1.96514 1.29513 0.943528 -1.82011 1.29109 0.644293 -1.94622 -23.7291 17.4031 8.94727 -25.2845 29.6388 17.2035 -0.0 0.0 -0.0 2.50808 1.65627 4.95487 -24.0848 -16.9403 71.6134 1.41041 -34.9391 0.443896 -31.8812 -2.13198 3.41872 -2.81259 17.8712 -9.83032 -0.0 0.0 -0.0 3.713 29.774 -4.66595 -11.5936 12.3532 -73.5383 0.714761 19.4976 -0.122805 14.1603 -0.279904 1.78261 4.30707 -17.9581 -36.0624 0.0 0.0 0.0 -2.68474 -12.114 -0.0398129 -19.0594 0.305645 2.89539 40.617 25.2439 -5.23493 -15.4602 0.0 0.0 -0.0 0.0 -0.0 4.38717 5.5943 -6.4113 -11.8953 -0.304167 -1.7969 10.3395 -0.397278 1.48048 32.8352 -0.0 -0.0 0.0 0.0 0.0 
